<svg xmlns="http://www.w3.org/2000/svg" xmlns:xlink="http://www.w3.org/1999/xlink" width="2560.004" height="584.001" viewBox="0 0 2560.004 584.001"><defs><style>.a{fill:#ccc;}.b{fill:url(#a);}.c{clip-path:url(#b);}.d{fill:url(#c);}</style><linearGradient id="a" x1="0.549" y1="0.431" x2="0.5" gradientUnits="objectBoundingBox"><stop offset="0" stop-color="#0157ba"/><stop offset="1" stop-color="#044795"/></linearGradient><clipPath id="b"><path class="a" d="M0,121.352V584H2560V121.343C2166.832,43.213,1734.275,0,1280,0,826.076,0,393.781,43.155,0,121.352Z" transform="translate(2560.004 584.001) rotate(180)"/></clipPath><linearGradient id="c" x1="0.937" x2="0.937" y2="1" gradientUnits="objectBoundingBox"><stop offset="0" stop-color="#0084ff"/><stop offset="1" stop-color="#009dff"/></linearGradient></defs><path class="b" d="M0,121.352V584H2560V121.343C2166.832,43.213,1734.275,0,1280,0,826.076,0,393.781,43.155,0,121.352Z" transform="translate(2560.004 584.001) rotate(180)"/><g class="c" transform="translate(0 0)"><path class="d" d="M-13523.312-6270.758c421.188,106.792,554.49,390.51,596.643,552.79,18.27,70.335,19.343,117.84,19.343,117.84h738.929v-666.757Z" transform="translate(14772.398 6188.002)"/></g></svg>